  <svg
          class="dark:fill-white fill-black filter drop-shadow-md"
          id="svg"
          version="1.1"
          xmlns="http://www.w3.org/2000/svg"
          width="400"
          height="225.22321428571428"
          viewBox="0, 0, 400,225.22321428571428"
        >
          <g id="svgg">
            <path
              id="path0"
              d="M167.020 67.714 C 158.188 68.237,149.155 75.933,141.764 89.232 C 139.304 93.659,137.315 99.063,135.931 105.078 C 135.620 106.429,135.245 108.061,135.097 108.705 C 134.441 111.554,134.358 112.334,134.261 116.518 C 134.126 122.403,134.404 123.744,136.392 126.785 C 138.634 130.213,139.562 131.107,142.299 132.478 C 144.563 133.612,146.954 134.160,151.786 134.653 C 153.290 134.806,154.646 134.955,154.799 134.984 C 154.953 135.013,156.911 135.114,159.152 135.208 C 161.392 135.302,164.632 135.453,166.350 135.544 C 168.069 135.634,170.731 135.759,172.266 135.822 C 175.743 135.964,176.120 136.000,177.567 136.329 C 178.211 136.475,179.501 136.699,180.432 136.827 C 182.251 137.077,184.276 137.585,185.953 138.213 C 186.993 138.603,190.596 140.075,191.479 140.471 L 191.943 140.679 189.638 141.852 C 188.370 142.497,186.741 143.414,186.017 143.890 C 185.294 144.365,184.440 144.885,184.120 145.045 C 183.800 145.205,182.759 145.776,181.808 146.314 C 180.857 146.852,179.450 147.634,178.683 148.052 C 177.041 148.946,174.481 150.433,173.185 151.245 C 172.679 151.562,171.487 152.307,170.536 152.900 C 169.584 153.494,167.806 154.604,166.585 155.366 C 160.881 158.926,157.168 163.592,157.689 166.547 C 158.222 169.575,163.211 173.135,168.638 174.359 C 170.929 174.876,177.588 174.624,181.281 173.880 C 190.814 171.962,199.067 166.296,202.383 159.396 C 202.639 158.863,203.084 157.999,203.371 157.478 C 205.566 153.492,205.643 146.018,203.527 142.232 L 203.268 141.769 203.960 141.364 C 204.827 140.857,204.714 140.821,205.211 141.769 C 206.108 143.481,207.800 144.735,210.013 145.330 C 211.234 145.658,215.298 145.759,216.444 145.490 C 219.777 144.708,223.743 141.025,225.539 137.044 C 225.717 136.650,226.026 136.052,226.227 135.714 C 226.653 134.998,227.737 132.571,228.346 130.971 C 228.956 129.369,229.058 129.129,229.137 129.129 C 229.406 129.129,230.158 135.201,230.472 139.900 C 230.537 140.882,230.689 142.356,230.809 143.175 C 230.929 143.995,231.027 145.141,231.027 145.722 L 231.027 146.780 230.386 147.358 C 225.551 151.717,221.056 156.885,218.672 160.826 C 218.245 161.532,217.621 162.473,217.284 162.918 C 216.765 163.603,213.839 169.156,213.839 169.455 C 213.839 169.503,213.417 170.457,212.900 171.574 C 211.890 173.760,211.564 174.628,211.398 175.571 C 211.340 175.901,211.228 176.490,211.149 176.879 C 210.704 179.082,211.608 181.160,213.597 182.502 C 215.909 184.062,216.870 184.298,220.647 184.233 C 224.421 184.167,224.818 184.090,228.763 182.654 C 232.849 181.167,235.888 177.768,236.384 174.129 C 236.448 173.657,236.551 172.994,236.612 172.656 C 236.717 172.077,236.823 170.940,237.052 167.969 C 237.106 167.263,237.155 162.818,237.161 158.092 L 237.171 149.498 237.921 148.853 C 238.334 148.499,239.400 147.703,240.290 147.084 C 241.180 146.466,242.511 145.473,243.248 144.878 C 243.984 144.283,245.391 143.200,246.373 142.472 C 247.355 141.743,248.510 140.861,248.940 140.512 C 249.369 140.162,250.424 139.385,251.283 138.785 C 252.143 138.185,253.524 137.133,254.353 136.446 C 256.172 134.939,261.808 130.674,263.281 129.691 C 266.001 127.875,271.308 123.578,272.930 121.878 C 273.664 121.109,274.688 120.078,275.205 119.587 C 278.771 116.201,279.067 115.811,279.065 114.509 C 279.062 112.721,277.845 111.502,276.060 111.499 C 274.926 111.497,274.407 111.779,272.991 113.165 C 269.915 116.176,268.809 117.287,268.379 117.795 C 267.820 118.456,262.207 122.961,260.334 124.251 C 258.300 125.653,251.889 130.480,250.446 131.696 C 249.741 132.291,248.560 133.195,247.824 133.705 C 247.087 134.216,245.932 135.070,245.257 135.604 C 244.581 136.139,243.326 137.094,242.467 137.728 C 241.607 138.362,240.301 139.364,239.565 139.954 C 237.583 141.542,236.914 141.998,236.818 141.827 C 236.774 141.748,236.657 140.579,236.558 139.229 C 236.172 133.957,235.864 131.405,235.198 127.958 C 234.225 122.930,233.371 116.106,233.370 113.349 C 233.369 111.687,233.231 110.637,232.928 109.989 C 232.814 109.743,232.684 109.318,232.641 109.044 C 232.276 106.751,230.393 104.001,228.570 103.102 C 225.519 101.595,221.672 102.046,219.420 104.173 C 219.205 104.376,218.648 104.802,218.182 105.119 C 217.112 105.847,214.902 108.150,213.449 110.051 C 213.080 110.533,212.231 111.570,211.562 112.355 C 210.008 114.178,208.308 116.730,207.413 118.583 C 205.669 122.194,203.886 129.130,203.699 133.033 L 203.627 134.536 202.623 135.082 C 202.070 135.383,200.938 136.025,200.106 136.509 C 198.322 137.547,198.600 137.504,197.647 136.888 C 193.514 134.214,186.237 131.466,181.529 130.802 C 180.608 130.672,179.304 130.440,178.632 130.286 C 177.226 129.966,175.985 129.855,171.931 129.686 C 170.335 129.619,167.673 129.494,166.016 129.406 C 164.358 129.319,161.571 129.194,159.821 129.127 C 158.038 129.059,155.244 128.863,153.460 128.679 C 145.128 127.822,143.788 127.185,141.146 122.824 C 139.855 120.692,139.964 114.703,141.404 108.594 C 141.701 107.335,142.055 105.804,142.191 105.190 C 145.194 91.675,155.715 77.175,164.546 74.382 C 167.505 73.446,173.001 73.630,175.452 74.748 C 177.076 75.488,179.822 77.613,181.163 79.167 C 184.070 82.534,186.336 88.256,186.454 92.522 C 186.518 94.853,186.623 95.305,187.265 96.017 C 188.753 97.668,191.557 97.138,192.352 95.056 C 192.731 94.064,192.547 89.735,192.045 87.835 C 188.861 75.786,181.011 68.071,171.652 67.794 C 168.746 67.708,167.487 67.686,167.020 67.714 M225.234 108.386 C 227.036 108.988,227.133 112.377,225.450 115.893 C 223.913 119.105,217.390 125.351,211.291 129.452 C 210.073 130.271,210.110 130.426,210.829 127.535 C 212.252 121.815,213.467 119.486,217.360 115.011 C 217.734 114.581,218.158 114.054,218.303 113.839 C 218.447 113.624,218.846 113.142,219.188 112.768 C 219.530 112.393,220.155 111.700,220.576 111.228 C 220.998 110.756,221.701 110.127,222.139 109.831 C 222.577 109.534,223.061 109.167,223.214 109.014 C 223.853 108.377,224.556 108.159,225.234 108.386 M222.501 129.046 C 222.042 130.264,221.099 132.353,220.760 132.906 C 220.579 133.199,220.295 133.737,220.129 134.102 C 219.153 136.240,217.130 138.571,215.662 139.249 L 214.845 139.627 213.198 139.531 C 211.092 139.408,210.805 139.296,210.431 138.449 C 210.280 138.108,210.156 137.780,210.156 137.721 C 210.156 137.663,211.148 136.953,212.360 136.144 C 216.187 133.591,219.997 130.746,222.266 128.750 C 222.511 128.533,222.724 128.355,222.738 128.352 C 222.752 128.350,222.646 128.662,222.501 129.046 M198.533 146.261 C 199.346 148.789,199.000 152.823,197.791 154.900 C 197.555 155.305,197.102 156.164,196.783 156.808 C 193.486 163.482,185.129 167.837,174.308 168.521 C 170.508 168.761,166.599 167.725,164.573 165.939 L 164.134 165.553 165.410 164.209 C 166.111 163.470,167.014 162.590,167.416 162.253 C 168.599 161.260,178.283 155.262,181.696 153.408 C 182.464 152.991,183.669 152.320,184.375 151.916 C 185.081 151.513,186.186 150.902,186.830 150.558 C 187.475 150.215,188.528 149.585,189.172 149.158 C 189.815 148.731,191.999 147.544,194.027 146.520 L 197.712 144.659 197.961 144.958 C 198.098 145.122,198.356 145.709,198.533 146.261 M231.034 166.406 C 230.967 167.174,230.862 168.379,230.801 169.085 C 230.289 174.990,229.860 175.663,225.563 177.297 C 222.692 178.389,217.969 178.561,217.372 177.595 C 217.190 177.300,217.573 176.100,218.464 174.174 C 218.990 173.039,219.420 172.073,219.420 172.027 C 219.420 171.741,222.056 166.772,222.569 166.092 C 222.907 165.643,223.503 164.739,223.893 164.083 C 225.325 161.676,227.946 158.331,229.812 156.530 L 231.083 155.304 231.119 160.158 C 231.141 163.077,231.107 165.567,231.034 166.406 "
              stroke="none"
              fill-rule="evenodd"
            ></path>
          </g>
        </svg>