<svg viewBox="92.138 103.124 298.845 196.811" width="298.845" height="196.811">
  <path id="path1" d="M 174.551 49.812 C 179.746 50.212 183.187 51.115 188.319 53.426 C 189.809 54.096 191.184 54.645 191.376 54.645 C 191.568 54.645 191.725 54.776 191.725 54.936 C 191.725 55.096 192.031 55.324 192.405 55.443 C 192.779 55.562 194.148 56.449 195.448 57.416 C 196.748 58.382 198.385 59.54 199.085 59.989 C 199.785 60.438 201.12 61.697 202.052 62.785 C 202.984 63.874 204.188 65.193 204.727 65.716 C 206.219 67.164 209.205 71.454 210.061 73.38 C 211.56 76.752 212.547 77.061 218.46 76.01 C 225.505 74.758 237.488 77.162 245.085 81.352 C 254.455 86.52 263.175 96.641 266.331 106.011 C 267.934 110.769 268.68 111.277 271.547 109.559 C 283.081 102.645 302.155 102.168 314.743 108.478 C 318.331 110.277 321.865 112.284 322.248 112.74 C 322.334 112.842 323.247 113.596 324.278 114.416 C 328.023 117.394 331.144 120.71 333.021 123.705 C 333.193 123.979 333.814 124.877 334.401 125.701 C 335.594 127.374 339.145 134.974 340.083 137.861 C 342.879 146.47 342.252 161.848 338.83 168.555 C 338.471 169.26 337.885 170.581 337.529 171.491 C 337.172 172.401 336.258 174.149 335.497 175.374 C 334.737 176.6 334.114 177.69 334.114 177.797 C 334.114 178.165 331.854 181.264 330.675 182.514 C 323.538 190.076 316.722 194.62 309.133 196.875 C 308.361 197.105 307.307 197.435 306.792 197.609 C 306.276 197.783 305.068 198.147 304.107 198.417 C 301.939 199.027 301.7 199.296 300.068 202.966 C 298.628 206.206 298.177 206.994 294.926 211.961 C 292.652 215.436 284.13 224.512 283.141 224.512 C 282.886 224.512 281.709 225.231 280.527 226.109 C 279.344 226.987 278.025 227.857 277.596 228.042 C 277.166 228.228 276.604 228.54 276.347 228.736 C 276.089 228.931 275.16 229.391 274.282 229.758 C 273.404 230.125 271.788 230.831 270.691 231.326 C 263.834 234.422 260.789 234.964 250.273 234.963 C 242.364 234.963 242.035 234.937 237.523 233.982 C 232.132 232.841 231.887 232.872 229.271 235.023 C 227.705 236.311 223.94 239.147 222.823 239.88 C 222.478 240.107 218.659 241.876 216.081 243.003 C 201.83 249.236 183.379 246.52 169.685 236.174 C 167.878 234.809 163.637 235.895 160.343 238.566 C 156.886 241.37 138.945 242.953 131.46 241.113 C 117.33 237.642 105.833 228.499 99.57 215.755 C 97.871 212.296 97.397 212.122 92.493 213.152 C 87.433 214.214 79.423 213.715 73.536 211.971 C 67.082 210.058 56.519 203.555 54.276 200.113 C 53.987 199.67 53.215 198.659 52.559 197.868 C 51.903 197.076 50.893 195.826 50.314 195.091 C 49.157 193.623 46.019 187.34 44.966 184.387 C 44.333 182.611 44.178 181.899 43.367 177.049 C 42.206 170.102 43.891 158.182 46.745 153.162 C 47.136 152.475 47.457 151.691 47.459 151.42 C 47.462 150.99 50.66 145.926 51.191 145.511 C 51.626 145.171 54.333 141.427 54.333 141.166 C 54.333 140.901 57.576 138.377 62.099 135.123 C 64.178 133.627 68.223 131.55 70.461 130.829 C 71.122 130.616 71.803 130.336 71.975 130.207 C 72.147 130.077 72.99 129.813 73.849 129.62 C 79.674 128.31 79.451 128.509 80.868 123.341 C 85.34 107.033 101.129 94.583 118.425 93.727 C 124.189 93.442 124.093 93.513 124.582 89.149 C 125.088 84.634 126.367 80.26 128.536 75.619 C 129.286 74.016 129.899 72.63 129.899 72.537 C 129.899 72.445 130.643 71.368 131.553 70.143 C 132.463 68.918 133.645 67.307 134.181 66.563 C 139.897 58.619 151.936 51.701 162.777 50.131 C 168.029 49.37 168.604 49.355 174.551 49.812 Z" fill-rule="evenodd" style="stroke: rgb(255, 255, 255); fill: rgb(199, 209, 218);" transform="matrix(1, 0, 0, 1, 49.14196, 53.618286)"></path>
</svg>